PathFileType	4	(X/Y/Z)	E:\Studenten\Marcel_BSc\Ayumi_25_09_2024\25-09-2024\sumo_dl_80kg01.trc
DataRate	CameraRate	NumFrames	NumMarkers	Units	OrigDataRate	OrigDataStartFrame	OrigNumFrames
200.0	200.0	4	52	mm	200.0	2435	2782	
Frame#	Time	RSACR			LSACR			USACR			LBAR			RBAR			RHEE			RMT1			RMT5			RMT2			LHEE			LMT1			LMT5			LMT2			LMMAL			LLMAL			LTIB4			LTIB2			LTIB3			LTIB1			RMMAL			RLMAL			RTIB1			RTIB2			RTIB3			RTHI1			RTHI4			RTHI3			RTHI2			LTHI1			LTHI4			LTHI3			LTHI2			FHD			LBHD			RBHD			C7			T10			CLAV			LSHO			RSHO			LRAD			LUL			LRFIN			RRAD			RUL			RUFIN			LDUPA			LMUPA			LUUPA			RDUPA			RUUPA			RMUPA			
		X1	Y1	Z1	X2	Y2	Z2	X3	Y3	Z3	X4	Y4	Z4	X5	Y5	Z5	X6	Y6	Z6	X7	Y7	Z7	X8	Y8	Z8	X9	Y9	Z9	X10	Y10	Z10	X11	Y11	Z11	X12	Y12	Z12	X13	Y13	Z13	X14	Y14	Z14	X15	Y15	Z15	X16	Y16	Z16	X17	Y17	Z17	X18	Y18	Z18	X19	Y19	Z19	X20	Y20	Z20	X21	Y21	Z21	X22	Y22	Z22	X23	Y23	Z23	X24	Y24	Z24	X25	Y25	Z25	X26	Y26	Z26	X27	Y27	Z27	X28	Y28	Z28	X29	Y29	Z29	X30	Y30	Z30	X31	Y31	Z31	X32	Y32	Z32	X33	Y33	Z33	X34	Y34	Z34	X35	Y35	Z35	X36	Y36	Z36	X37	Y37	Z37	X38	Y38	Z38	X39	Y39	Z39	X40	Y40	Z40	X41	Y41	Z41	X42	Y42	Z42	X43	Y43	Z43	X44	Y44	Z44	X45	Y45	Z45	X46	Y46	Z46	X47	Y47	Z47	X48	Y48	Z48	X49	Y49	Z49	X50	Y50	Z50	X51	Y51	Z51	X52	Y52	Z52	
2435	12.17	326.42526	863.56824	-968.79169	327.76498	866.35986	-910.07245	315.64679	878.61371	-939.27069	222.27092	251.25951	190.32069	191.36099	244.28212	-2030.2787	271.69516	29.382198	-1369.8782	121.74586	43.449398	-1497.2018	194.92947	30.136593	-1536.8855	153.96727	42.65667	-1522.5187	306.34512	39.469666	-489.64145	145.30608	48.770084	-382.13721							245.80013	65.930511	-501.17661	291.07547	74.242065	-434.77164	306.2406	204.07417	-503.37375	291.51917	267.33609	-512.0567	327.2933	251.07678	-544.44165	321.03525	293.65387	-554.70721	222.57607	60.582081	-1371.9803	272.9512	70.219261	-1425.2312	282.01321	305.07071	-1331.0264	317.87299	280.65335	-1304.3932				288.65646	730.02234	-1118.3561	244.30814	597.96881	-1197.7428	290.63495	582.33527	-1183.3093	278.4043	645.62372	-1167.3514	297.91959	732.75909	-752.96472	292.61792	598.51318	-681.81396	244.77516	605.31836	-663.008	267.55612	658.3092	-694.26788	80.813354	1489.9993	-824.51514	191.77763	1477.7589	-842.49628	195.45291	1467.2776	-966.83734	217.3663	1290.5559	-910.9964	297.83502	919.90985	-935.7226	93.498833	1217.5931	-913.17444	202.3898	1248.5009	-745.85162	150.62477	1271.6697	-1067.3196	184.14677	737.89948	-600.34412	217.291	739.72577	-577.56732	156.474	657.24921	-583.07477	177.47562	773.23865	-1264.2152	206.26297	782.20563	-1300.3556	158.414	695.27014	-1285.3475	187.90988	1035.6113	-672.39209	230.45541	1016.0055	-654.88452	214.83032	1090.8131	-677.07373	144.55975	1029.3352	-1159.9423	162.46062	1106.6305	-1163.4937	176.51501	1051.967	-1190.785
2436	12.175	325.63675	863.47498	-969.02734	326.81552	866.13007	-910.17596	314.71655	878.42682	-939.38409	222.22624	251.2464	190.31078	191.24393	244.16423	-2030.0979	271.69043	29.359056	-1369.842	121.73431	43.441628	-1497.2028	193.61411	30.384895	-1536.9855	153.95425	42.629051	-1522.5321	306.32758	39.465164	-489.66525	145.30173	48.771263	-382.11221							245.76733	65.880341	-501.20764	291.0629	74.246857	-434.83664	306.1792	203.98071	-503.5488	291.48059	267.24765	-512.23358	327.22824	250.99283	-544.64307	320.9884	293.56592	-554.9162	222.51096	60.541916	-1371.9429	272.91858	70.229523	-1425.1254	281.99182	305.04138	-1330.7489	317.87476	280.54425	-1304.1268				287.65891	730.04065	-1118.5015	243.3475	597.80328	-1197.5635	289.64185	582.32269	-1183.1218	277.39374	645.53156	-1167.1823	296.99469	732.68781	-753.07629	291.94119	598.49658	-682.11829	244.29433	605.19238	-663.09918	267.07892	658.48706	-693.96802	82.559258	1490.6544	-824.64966	193.4903	1477.8636	-842.51758	197.16785	1467.4059	-966.8548	218.161	1290.59	-911.12079	297.28348	919.71631	-935.78009	93.958267	1218.178	-913.19171	203.32762	1248.9562	-746.19263	151.63657	1272.2343	-1067.1952	183.63832	739.82373	-596.19806	216.97191	741.75043	-573.70587	155.75058	659.45306	-578.0108	177.11002	775.53302	-1268.3459	206.19278	784.98199	-1304.4669	158.01785	697.94794	-1290.6809	188.20265	1036.7081	-671.06158	230.67892	1017.1863	-653.73773	215.34123	1091.8895	-676.5376	144.84247	1030.8639	-1161.6655	163.17015	1108.1277	-1164.4198	177.04521	1053.7263	-1192.396
2437	12.18	324.51718	863.16925	-969.03326	325.95248	865.90802	-910.32642	313.81824	878.25842	-939.46661	222.14038	251.24634	190.29973	191.09352	244.16409	-2030.1178	271.65417	29.320126	-1369.7899	121.72032	43.428226	-1497.2166	194.85291	30.144262	-1536.9066	153.9666	42.614155	-1522.5304	306.29337	39.438789	-489.7095	145.29944	48.775944	-382.07538							245.70778	65.830788	-501.25735	291.02374	74.287445	-434.97198	306.21457	203.96393	-503.70007	290.6778	266.61472	-512.99414	327.23849	250.84654	-544.80963	320.95438	293.47397	-555.15668	222.46449	60.488403	-1371.8961	272.8764	70.237358	-1425.0161	281.82059	305.03604	-1330.496	317.80276	280.53479	-1303.9767				286.67987	730.0694	-1118.6047	242.36569	597.65076	-1197.407	288.76181	582.31537	-1182.999	276.422	645.46228	-1167.0145	296.16327	732.64368	-753.19153	291.2222	598.37567	-682.57849	243.8288	605.03259	-663.21222	266.4306	658.42883	-694.08545	84.273972	1491.2595	-824.72906	195.15991	1477.9386	-842.55774	198.86266	1467.489	-966.89911	218.9137	1290.6307	-911.25568	296.48434	919.46765	-935.90192	94.421455	1218.7548	-913.20215	204.2195	1249.3916	-746.54773	152.61232	1272.7876	-1067.076	183.11377	741.86694	-591.94879	216.61134	743.85138	-569.75385	155.00978	661.78107	-572.79327	176.82028	777.99109	-1272.6604	206.43504	787.69983	-1308.311	157.64441	700.70068	-1296.0956	188.35916	1038.1201	-670.00751	230.88133	1018.4116	-652.52301	215.86374	1092.9745	-675.9729	145.06186	1032.4696	-1163.4492	163.85818	1109.6407	-1165.3599	177.65077	1055.2736	-1193.5068
2438	12.185	323.73965	863.09174	-969.27283	325.06625	865.69922	-910.42456	312.91867	878.07544	-939.58557	222.1434	251.37576	190.56285	190.84659	244.22548	-2030.3011	271.625	29.276434	-1369.7504	121.71616	43.429031	-1497.2307	194.30449	30.350422	-1537.1318	153.93591	42.61425	-1522.5322	306.25061	39.423733	-489.76382	145.30164	48.765003	-382.03772							245.65565	65.786766	-501.30618	291.02124	74.326569	-435.05518	306.13135	203.81721	-503.95923	290.6828	266.54044	-513.22345	327.23074	250.76875	-545.04126	320.91266	293.37912	-555.44116	222.43349	60.433262	-1371.8529	272.83124	70.264046	-1424.9257	281.582	305.08313	-1330.2994	317.69327	280.57977	-1303.9495				285.56699	730.05756	-1118.6232	241.60608	597.54053	-1197.4414	287.79938	582.40125	-1182.6019	275.22476	645.49426	-1166.9907	294.8269	732.4176	-753.79382	290.79926	598.28467	-682.81628	243.34125	604.87903	-663.33148	265.78503	658.35675	-694.18774	85.950104	1491.8392	-824.85852	196.77953	1478.0131	-842.63782	200.517	1467.5588	-966.95337	219.73874	1290.6774	-911.40082	295.75674	919.22595	-935.98267	94.875763	1219.3304	-913.24829	205.08557	1249.8367	-746.89508	153.59384	1273.322	-1066.9431	182.28816	744.10614	-587.4809	216.33923	746.04559	-565.72009	154.26718	664.22058	-567.45886	176.57614	780.50623	-1277.0565	206.78342	790.32843	-1312.1455	157.27092	703.54285	-1301.5631	189.00832	1039.3375	-668.30652	231.12938	1019.6689	-651.27649	216.34418	1094.0891	-675.3645	145.29219	1034.0845	-1165.2515	164.53227	1111.178	-1166.365	178.16721	1057.0052	-1194.92
